<svg width="346" height="346" viewBox="0 0 346 346" fill="none" xmlns="http://www.w3.org/2000/svg">
<g clip-path="url(#clip0_30_54)">
<path d="M283.353 234.08C233.551 286.649 158.791 303.81 94.4203 274.016C72.2562 263.757 22.5629 210.224 23.6194 170.174C23.6394 169.414 23.665 168.647 23.6962 167.874C26.8399 90 74.7085 49.6244 99.0225 35.8129C132.401 16.8523 181.007 26.0246 197.899 56.2459C208.881 75.896 222.073 75.3425 234.108 76.0825C246.148 76.8227 309.442 87.5 319.868 132.686C329.556 174.671 310.132 205.813 283.353 234.08Z" fill="#DCF4FF"/>
<path d="M151.931 124.611C151.931 124.611 141.519 107.396 116.54 111.86C116.54 111.86 133.356 136.799 151.931 124.611Z" fill="#3F9896"/>
<path d="M125.163 117.851C125.163 117.851 113.639 98.797 85.99 103.738C85.99 103.738 104.603 131.342 125.163 117.851Z" fill="#448A7A"/>
<path d="M143.16 122.881C143.16 122.881 139.727 84.6866 93.2095 71.4367C93.2095 71.4367 101.15 128.218 143.16 122.881Z" fill="#76C68B"/>
<path d="M152.927 228.436C146.938 225.474 121.861 235.1 115.499 236.95C111.452 238.128 96.0842 242.294 85.434 245.171L84.7756 244.33L76.5487 247.567C75.4296 247.868 74.7898 248.041 74.7898 248.041L74.9519 248.195L74.7898 248.259L65.1297 286.184C62.9407 294.778 66.9972 303.737 74.8952 307.771C81.5306 311.159 101.692 318.106 110.067 320.761C118.658 323.485 127.879 319.734 132.249 312.103C132.25 312.102 163.148 277.064 166.299 274.779C171.913 270.707 180.705 251.016 180.705 251.016C180.705 251.016 158.915 231.397 152.927 228.436Z" fill="#FE9F73"/>
<path d="M132.412 312.512C132.315 312.512 132.217 312.477 132.139 312.407C131.971 312.255 131.957 311.997 132.109 311.829L164.931 275.405C165.082 275.237 165.341 275.224 165.509 275.375C165.677 275.527 165.69 275.785 165.539 275.953L132.717 312.377C132.636 312.467 132.524 312.512 132.412 312.512Z" fill="#010103"/>
<path d="M198.828 149.524C198.828 149.524 210.224 146.287 213.298 155.004C216.372 163.72 206.011 169.931 202.806 170.789C199.6 171.648 198.828 149.524 198.828 149.524Z" fill="#FC8759"/>
<path d="M198.828 168.977C198.828 168.977 210.224 165.74 213.298 174.457C216.372 183.173 206.011 189.383 202.806 190.242C199.6 191.101 198.828 168.977 198.828 168.977Z" fill="#FC8759"/>
<path d="M195.445 186.192C195.445 186.192 206.84 182.955 209.915 191.672C212.989 200.388 202.628 206.598 199.423 207.457C196.217 208.316 195.445 186.192 195.445 186.192Z" fill="#FC8759"/>
<path d="M200.805 271.613H121.458C119.658 271.613 118.199 270.154 118.199 268.354V104.903C118.199 102.839 119.872 101.166 121.936 101.166H200.327C202.391 101.166 204.064 102.839 204.064 104.903V268.354C204.064 270.154 202.605 271.613 200.805 271.613Z" fill="#223749"/>
<path d="M187.204 122.921H135.059C129.18 122.921 124.415 127.686 124.415 133.565C124.415 139.444 129.18 144.21 135.059 144.21H187.204C193.082 144.21 197.848 139.444 197.848 133.565C197.848 127.686 193.082 122.921 187.204 122.921Z" fill="#DCF4FF"/>
<path d="M187.204 156.92H135.059C129.18 156.92 124.415 161.685 124.415 167.564C124.415 173.443 129.18 178.209 135.059 178.209H187.204C193.082 178.209 197.848 173.443 197.848 167.564C197.848 161.685 193.082 156.92 187.204 156.92Z" fill="#DCF4FF"/>
<path d="M143.944 167.564C143.944 169.8 143.083 171.834 141.675 173.353C141.655 173.374 141.635 173.395 141.615 173.416C141.594 173.439 141.572 173.461 141.55 173.483C140.003 175.084 137.832 176.08 135.429 176.08C134.115 176.08 132.871 175.782 131.76 175.251C130.717 174.752 129.792 174.048 129.036 173.19C128.86 172.989 128.692 172.781 128.535 172.564C127.515 171.16 126.914 169.433 126.914 167.564C126.914 162.861 130.726 159.049 135.429 159.049C140.132 159.049 143.944 162.861 143.944 167.564Z" fill="#CDECE7"/>
<path d="M133.7 171.535C133.7 171.535 133.636 171.657 133.524 171.871C133.483 171.95 133.435 172.04 133.382 172.141C133.202 172.486 132.956 172.957 132.674 173.498C132.65 173.544 132.625 173.591 132.6 173.639C132.34 174.138 132.052 174.69 131.76 175.251C130.718 174.752 129.792 174.048 129.037 173.19C128.86 172.989 128.693 172.781 128.536 172.565C128.642 172.461 128.757 172.373 128.881 172.303C130.139 171.591 132.508 171.528 133.373 171.53C133.579 171.53 133.7 171.535 133.7 171.535Z" fill="#F85772"/>
<path d="M129.036 173.19C129.436 172.61 129.931 172.209 130.542 172.124C131.212 172.031 132.279 171.948 133.368 171.881C133.419 171.878 133.472 171.875 133.524 171.871C135.073 171.778 136.632 171.715 137.127 171.696C137.231 171.692 137.288 171.69 137.288 171.69C137.288 171.69 137.302 171.693 137.325 171.699C137.46 171.734 137.905 171.846 137.729 171.764C139.483 172.074 140.73 172.705 141.615 173.416C141.593 173.439 141.572 173.461 141.55 173.483C140.002 175.084 137.832 176.08 135.429 176.08C134.115 176.08 132.871 175.782 131.76 175.251C130.718 174.752 129.792 174.048 129.036 173.19Z" fill="#F85772"/>
<path d="M135.554 175.082C135.623 175.089 135.694 175.096 135.766 175.101C135.807 175.103 135.843 175.073 135.845 175.031C135.848 174.99 135.818 174.955 135.776 174.952C132.685 174.735 132.111 172.472 132.107 172.449C132.099 172.409 132.061 172.382 132.021 172.389C131.981 172.396 131.953 172.432 131.959 172.472C131.962 172.495 132.533 174.77 135.554 175.082Z" fill="#0D060E"/>
<path d="M137.312 171.607C139.342 171.891 140.733 172.597 141.675 173.353C141.655 173.374 141.635 173.395 141.615 173.416C141.594 173.439 141.572 173.461 141.55 173.483C140.639 172.755 139.295 172.074 137.339 171.792C137.294 171.786 137.249 171.779 137.204 171.773C137.162 171.767 137.131 171.735 137.127 171.696C137.125 171.688 137.125 171.681 137.126 171.673C137.133 171.623 137.178 171.589 137.227 171.595C137.256 171.599 137.284 171.603 137.312 171.607Z" fill="#0D060E"/>
<path d="M138.026 164.958L138.127 168.864C138.127 168.864 138.212 170.118 137.118 170.303L137.366 171.973C137.459 172.594 137.102 173.2 136.509 173.405C136.219 173.505 135.871 173.582 135.475 173.592C134.22 173.625 133.515 172.701 133.398 172.232C133.282 171.764 133.537 169.506 133.537 169.506L133.47 168.402L133.502 164.115L138.026 164.958Z" fill="#FC8759"/>
<path d="M134.543 169.303C134.543 169.303 134.671 171.403 137.301 171.535L137.117 170.303C137.117 170.303 135.424 170.69 134.543 169.303Z" fill="#FB554B"/>
<path d="M135.048 167.085C135.035 167.085 135.021 167.081 135.011 167.071C134.99 167.052 134.988 167.019 135.007 166.997C135.015 166.99 135.715 166.235 136.386 166.748C136.409 166.765 136.414 166.798 136.396 166.821C136.379 166.844 136.346 166.849 136.323 166.831C135.728 166.377 135.111 167.04 135.085 167.068C135.075 167.079 135.061 167.085 135.048 167.085Z" fill="#2D0F28"/>
<path d="M133.23 166.583L134.365 166.788L134.575 166.995C134.575 166.995 134.428 165.104 134.206 164.738C133.984 164.371 133.23 166.583 133.23 166.583Z" fill="#2F0E1B"/>
<path d="M137.196 166.715C137.182 166.715 137.167 166.71 137.156 166.698C137.137 166.677 137.138 166.644 137.159 166.624C137.18 166.605 137.668 166.165 137.99 166.428C138.013 166.446 138.016 166.479 137.998 166.501C137.98 166.524 137.947 166.527 137.924 166.509C137.672 166.304 137.234 166.697 137.23 166.701C137.22 166.71 137.208 166.715 137.196 166.715Z" fill="#2D0F28"/>
<path d="M136.111 167.269C136.113 167.356 136.045 167.428 135.958 167.43C135.871 167.432 135.799 167.364 135.797 167.277C135.795 167.19 135.863 167.118 135.95 167.116C136.037 167.114 136.109 167.182 136.111 167.269Z" fill="#010103"/>
<path d="M137.775 167.069C137.778 167.155 137.709 167.228 137.623 167.23C137.536 167.232 137.464 167.164 137.461 167.077C137.459 166.99 137.528 166.918 137.614 166.916C137.701 166.914 137.773 166.982 137.775 167.069Z" fill="#010103"/>
<path d="M134.813 167.248C134.827 167.768 134.416 168.201 133.896 168.214C133.376 168.228 132.943 167.817 132.93 167.297C132.916 166.777 133.327 166.344 133.847 166.331C134.367 166.317 134.8 166.728 134.813 167.248Z" fill="#FC8759"/>
<path d="M133.72 167.8C133.525 167.805 133.39 167.661 133.343 167.515C133.288 167.343 133.342 167.172 133.481 167.081C133.686 166.946 133.877 167.024 133.976 167.085C133.932 166.98 133.866 166.903 133.779 166.858C133.591 166.761 133.363 166.842 133.361 166.842C133.347 166.847 133.332 166.84 133.327 166.827C133.322 166.813 133.329 166.798 133.343 166.793C133.353 166.789 133.594 166.704 133.803 166.812C133.924 166.874 134.007 166.987 134.052 167.149L134.077 167.239L134.009 167.175C133.999 167.165 133.77 166.953 133.509 167.125C133.365 167.219 133.356 167.385 133.393 167.499C133.431 167.617 133.539 167.752 133.719 167.747C133.72 167.747 133.722 167.747 133.724 167.747C133.738 167.746 133.75 167.758 133.751 167.772C133.751 167.786 133.74 167.799 133.726 167.799C133.724 167.799 133.722 167.799 133.72 167.8Z" fill="#FB554B"/>
<path d="M136.692 168.313C136.681 168.314 136.671 168.307 136.667 168.296C136.662 168.282 136.669 168.267 136.683 168.263L137.202 168.076L137.005 166.846C137.002 166.831 137.012 166.818 137.026 166.816C137.041 166.813 137.054 166.823 137.056 166.837L137.261 168.11L136.7 168.312C136.698 168.313 136.695 168.313 136.692 168.313Z" fill="#FB554B"/>
<path d="M136.299 168.833C136.315 168.83 137.334 168.78 137.334 168.78C137.334 168.78 137.217 169.205 136.839 169.224C136.46 169.244 136.299 168.833 136.299 168.833Z" fill="#FBFDFA"/>
<path d="M133.23 166.583C133.23 166.583 132.865 164.757 133.408 164.059C133.952 163.361 137.143 162.081 137.543 162.413C137.942 162.745 137.562 163.17 137.562 163.17C137.562 163.17 138.845 162.721 139.168 163.861C139.491 165.001 136.721 165.561 135.047 165.067C135.047 165.067 133.957 165.416 133.23 166.583Z" fill="#2F0E1B"/>
<path d="M187.204 190.919H135.059C129.18 190.919 124.415 195.684 124.415 201.563C124.415 207.442 129.18 212.208 135.059 212.208H187.204C193.082 212.208 197.848 207.442 197.848 201.563C197.848 195.684 193.082 190.919 187.204 190.919Z" fill="#DCF4FF"/>
<path d="M187.204 225.039H135.059C129.18 225.039 124.415 229.805 124.415 235.684C124.415 241.562 129.18 246.328 135.059 246.328H187.204C193.082 246.328 197.848 241.562 197.848 235.684C197.848 229.805 193.082 225.039 187.204 225.039Z" fill="#DCF4FF"/>
<g opacity="0.3">
<path d="M192.167 128.823H146.83V129.689H192.167V128.823Z" fill="#223749"/>
<path d="M192.167 131.618H146.83V132.483H192.167V131.618Z" fill="#223749"/>
<path d="M192.167 134.412H146.83V135.278H192.167V134.412Z" fill="#223749"/>
<path d="M192.167 137.207H146.83V138.072H192.167V137.207Z" fill="#223749"/>
<path d="M192.167 162.822H146.83V163.688H192.167V162.822Z" fill="#223749"/>
<path d="M192.167 165.617H146.83V166.482H192.167V165.617Z" fill="#223749"/>
<path d="M192.167 168.411H146.83V169.277H192.167V168.411Z" fill="#223749"/>
<path d="M192.167 171.206H146.83V172.071H192.167V171.206Z" fill="#223749"/>
<path d="M192.167 196.822H146.83V197.687H192.167V196.822Z" fill="#223749"/>
<path d="M192.167 199.616H146.83V200.481H192.167V199.616Z" fill="#223749"/>
<path d="M192.167 202.41H146.83V203.276H192.167V202.41Z" fill="#223749"/>
<path d="M192.167 205.205H146.83V206.07H192.167V205.205Z" fill="#223749"/>
<path d="M192.167 230.942H146.83V231.807H192.167V230.942Z" fill="#223749"/>
<path d="M192.167 233.736H146.83V234.601H192.167V233.736Z" fill="#223749"/>
<path d="M192.167 236.531H146.83V237.396H192.167V236.531Z" fill="#223749"/>
<path d="M192.167 239.325H146.83V240.19H192.167V239.325Z" fill="#223749"/>
</g>
<path d="M143.509 201.465C143.509 203.474 142.813 205.321 141.649 206.778C140.308 208.455 138.346 209.615 136.112 209.907C135.746 209.955 135.373 209.98 134.994 209.98C134.972 209.98 134.95 209.98 134.928 209.979C134.584 209.977 134.245 209.954 133.912 209.911C133.822 209.9 133.733 209.888 133.644 209.873C131.458 209.525 129.55 208.345 128.254 206.669C127.141 205.23 126.479 203.424 126.479 201.465C126.479 196.762 130.291 192.949 134.994 192.949C139.697 192.949 143.509 196.762 143.509 201.465Z" fill="#FEC369"/>
<path d="M133.387 200.631C133.387 200.631 133.751 203.904 134.24 203.936C134.729 203.969 133.903 207.801 132.607 205.924C132.154 205.266 132.174 200.961 133.257 200.04C134.34 199.119 133.387 200.631 133.387 200.631Z" fill="#F32527"/>
<path d="M133.21 199.809C133.21 199.809 132.76 202.901 133.165 203.451C133.165 203.451 133.363 203.744 133.846 203.76L133.808 205.576L135.992 205.327L136.065 200.159C136.065 200.159 135.443 198.882 135.442 198.934C135.441 198.987 133.21 199.809 133.21 199.809Z" fill="#FCA085"/>
<path d="M133.875 202.389C133.881 202.389 133.887 202.383 133.889 202.374C133.891 202.363 133.886 202.353 133.878 202.35C133.789 202.321 133.734 202.164 133.718 202.113C133.848 202.018 133.928 201.894 133.956 201.743C134.002 201.497 133.895 201.273 133.89 201.263C133.886 201.254 133.877 201.252 133.871 201.258C133.864 201.265 133.862 201.277 133.867 201.286C133.868 201.288 133.972 201.505 133.929 201.733C133.902 201.877 133.823 201.995 133.695 202.086L133.683 202.094L133.688 202.11C133.69 202.12 133.751 202.35 133.872 202.389C133.873 202.389 133.874 202.389 133.875 202.389Z" fill="#FB554B"/>
<path d="M133.837 204.377L133.846 203.759C133.846 203.759 134.891 203.713 135.538 203.318C135.538 203.318 134.656 204.142 133.837 204.377Z" fill="#FB554B"/>
<path d="M135.32 201.364C135.33 201.364 135.34 201.361 135.348 201.353C135.363 201.339 135.364 201.314 135.349 201.298C135.344 201.292 134.846 200.767 134.377 201.134C134.36 201.147 134.357 201.172 134.37 201.189C134.384 201.206 134.409 201.209 134.426 201.196C134.837 200.874 135.274 201.332 135.292 201.352C135.299 201.36 135.31 201.364 135.32 201.364Z" fill="#F32527"/>
<path d="M133.695 201.258C133.706 201.259 133.717 201.254 133.725 201.245C133.739 201.229 133.738 201.204 133.722 201.19C133.707 201.177 133.36 200.871 133.134 201.059C133.117 201.073 133.115 201.098 133.129 201.114C133.143 201.131 133.168 201.134 133.185 201.119C133.358 200.975 133.666 201.246 133.669 201.248C133.677 201.255 133.686 201.258 133.695 201.258Z" fill="#F32527"/>
<path d="M134.527 201.573C134.526 201.634 134.575 201.684 134.635 201.685C134.696 201.686 134.746 201.637 134.747 201.576C134.748 201.516 134.699 201.466 134.638 201.465C134.578 201.464 134.528 201.512 134.527 201.573Z" fill="#010103"/>
<path d="M133.239 201.558C133.238 201.619 133.286 201.669 133.347 201.67C133.408 201.671 133.458 201.622 133.459 201.562C133.459 201.501 133.411 201.451 133.35 201.45C133.289 201.449 133.239 201.498 133.239 201.558Z" fill="#010103"/>
<path d="M134.417 202.572C134.405 202.572 133.639 202.657 133.639 202.657C133.639 202.657 133.778 202.96 134.062 202.929C134.347 202.898 134.417 202.572 134.417 202.572Z" fill="#FBFDFA"/>
<path d="M134.157 199.869L134.687 199.134C134.687 199.134 133.835 199.667 133.906 199.689C133.977 199.711 134.157 199.869 134.157 199.869Z" fill="#FC8759"/>
<path d="M135.748 199.521C135.748 199.521 135.596 200.674 132.835 200.906C132.835 200.906 132.193 199.2 134.198 198.63C136.204 198.06 136.386 199.598 136.345 199.584C136.305 199.569 135.748 199.521 135.748 199.521Z" fill="#F32527"/>
<path d="M135.332 200.167C135.332 200.167 135.773 200.927 136.01 201.474C136.01 201.474 135.157 206.301 137.016 206.031L137.348 206.026C138.993 206.004 137.854 202.445 137.827 200.556C137.809 199.373 136.373 198.172 135.439 198.893C134.505 199.613 135.332 200.167 135.332 200.167Z" fill="#F32527"/>
<path d="M135.606 202.063C135.601 202.404 135.873 202.684 136.214 202.689C136.555 202.694 136.835 202.421 136.84 202.08C136.845 201.74 136.573 201.46 136.232 201.455C135.891 201.45 135.611 201.722 135.606 202.063Z" fill="#FCA085"/>
<path d="M136.263 202.453C136.393 202.455 136.481 202.359 136.51 202.262C136.546 202.148 136.509 202.035 136.416 201.976C136.284 201.891 136.162 201.938 136.096 201.978C136.123 201.913 136.164 201.865 136.219 201.837C136.34 201.772 136.489 201.823 136.49 201.823C136.501 201.827 136.512 201.821 136.515 201.811C136.519 201.801 136.514 201.789 136.503 201.786C136.497 201.783 136.337 201.729 136.2 201.802C136.121 201.844 136.067 201.919 136.038 202.026L136.02 202.094L136.071 202.045C136.077 202.039 136.225 201.9 136.395 202.009C136.489 202.069 136.495 202.176 136.473 202.25C136.449 202.327 136.379 202.416 136.261 202.413C136.25 202.413 136.241 202.422 136.24 202.432C136.24 202.443 136.249 202.453 136.26 202.453C136.261 202.453 136.262 202.453 136.263 202.453Z" fill="#FB554B"/>
<path d="M133.086 199.287C133.086 199.287 132.129 200.297 132.348 203.204L133.008 200.336L133.086 199.287Z" fill="#F32527"/>
<path d="M136.111 209.907C135.746 209.955 135.373 209.98 134.994 209.98C134.972 209.98 134.95 209.98 134.928 209.979C134.584 209.977 134.244 209.954 133.911 209.911L133.961 209.704L134.721 206.508L134.928 205.642L134.975 205.443L135.058 205.094H138.684C139.069 205.094 139.599 205.348 139.622 205.359C140.114 205.621 140.871 206.122 141.648 206.778C140.308 208.455 138.346 209.615 136.111 209.907Z" fill="#5AB3BF"/>
<path d="M134.928 205.094V209.98C134.584 209.977 134.244 209.954 133.911 209.912C133.822 209.901 133.732 209.888 133.644 209.874C131.458 209.526 129.55 208.346 128.254 206.669C129.074 206.077 129.866 205.624 130.364 205.359C130.386 205.348 130.917 205.094 131.301 205.094L134.928 205.094Z" fill="#5AB3BF"/>
<path d="M133.911 209.911C133.822 209.901 133.732 209.888 133.644 209.874C133.756 209.813 133.862 209.757 133.96 209.704C134.399 209.471 134.691 209.321 134.716 209.321C134.73 209.321 134.805 209.349 134.928 209.399C135.17 209.498 135.598 209.682 136.112 209.907C135.746 209.955 135.373 209.98 134.994 209.98C134.972 209.98 134.95 209.98 134.928 209.979C134.584 209.977 134.244 209.954 133.911 209.911Z" fill="#5AB3BF"/>
<path d="M132.828 205.094H137.414C137.414 205.094 136.585 206.53 135 206.524C134.273 206.521 133.496 206.253 132.828 205.094Z" fill="#FCA085"/>
<path d="M129.67 206.917C129.692 206.917 129.713 206.907 129.726 206.888C130.242 206.147 130.682 206.146 130.682 206.146H130.682C130.72 206.146 130.75 206.115 130.75 206.077C130.751 206.04 130.72 206.009 130.682 206.009H130.682C130.657 206.009 130.164 206.019 129.614 206.809C129.593 206.84 129.6 206.883 129.631 206.905C129.643 206.913 129.657 206.917 129.67 206.917Z" fill="#0D060E"/>
<path d="M129.817 207.612C129.842 207.612 129.866 207.599 129.878 207.575C130.273 206.78 130.711 206.701 130.715 206.701C130.752 206.695 130.778 206.66 130.772 206.623C130.766 206.586 130.733 206.56 130.695 206.565C130.675 206.568 130.186 206.648 129.756 207.513C129.739 207.547 129.753 207.588 129.787 207.605C129.796 207.61 129.807 207.612 129.817 207.612Z" fill="#0D060E"/>
<path d="M127.034 133.83C127.034 134.974 127.26 136.065 127.668 137.061C127.678 137.085 127.688 137.108 127.697 137.131C127.699 137.136 127.702 137.141 127.704 137.146C128.092 138.064 128.636 138.899 129.304 139.619C129.324 139.64 129.344 139.662 129.364 139.682C129.385 139.705 129.406 139.727 129.428 139.75C130.976 141.35 133.146 142.346 135.549 142.346C136.863 142.346 138.107 142.049 139.218 141.517C139.426 141.418 139.629 141.31 139.827 141.195C139.861 141.175 139.894 141.156 139.928 141.135C140.018 141.081 140.107 141.025 140.195 140.968C140.225 140.948 140.255 140.928 140.285 140.908C140.899 140.497 141.455 140.008 141.942 139.456C142.119 139.256 142.286 139.047 142.443 138.831C142.784 138.361 143.079 137.855 143.319 137.32C143.798 136.255 144.064 135.074 144.064 133.83C144.064 129.128 140.252 125.315 135.549 125.315C130.846 125.315 127.034 129.128 127.034 133.83Z" fill="#76C68B"/>
<path d="M138.251 129.907C138.251 129.907 138.902 128.408 137.186 127.167C135.47 125.927 135.206 128.054 134.545 128.256C133.885 128.459 132.687 128.228 132.254 129.469C131.82 130.709 132.078 131.615 131.383 131.814C130.688 132.014 128.418 133.806 129.033 136.12C129.648 138.435 131.906 138.283 131.906 138.283C131.906 138.283 140.781 138.558 141.353 136.244C141.926 133.931 141.057 132.942 139.922 132.176C139.225 131.705 137.83 131.324 138.251 129.907Z" fill="#FDBA68"/>
<path d="M137.34 130.639C137.34 130.639 138.124 133.786 137.656 134.546C137.656 134.546 137.429 134.948 136.803 135.02L136.996 137.018L134.176 137.291L133.543 130.736L137.34 130.639Z" fill="#FC8759"/>
<path d="M136.661 133.235C136.649 133.236 136.638 133.229 136.634 133.217C136.63 133.204 136.637 133.189 136.651 133.185C136.813 133.134 136.898 132.92 136.921 132.851C136.674 132.748 136.515 132.598 136.448 132.407C136.339 132.094 136.514 131.784 136.522 131.771C136.529 131.759 136.545 131.755 136.557 131.762C136.569 131.769 136.574 131.785 136.567 131.797C136.565 131.8 136.396 132.1 136.497 132.39C136.561 132.573 136.717 132.715 136.962 132.812L136.984 132.82L136.978 132.843C136.974 132.856 136.886 133.165 136.667 133.234C136.665 133.235 136.663 133.235 136.661 133.235Z" fill="#FB554B"/>
<path d="M136.88 135.824L136.803 135.02C136.803 135.02 135.436 135.071 134.552 134.627C134.552 134.627 135.789 135.605 136.88 135.824Z" fill="#FB554B"/>
<path d="M134.956 132.033C134.943 132.034 134.93 132.031 134.919 132.022C134.897 132.005 134.893 131.972 134.911 131.95C134.917 131.942 135.51 131.205 136.159 131.632C136.183 131.648 136.189 131.68 136.174 131.704C136.158 131.727 136.126 131.734 136.102 131.718C135.532 131.344 135.013 131.986 134.992 132.014C134.983 132.025 134.97 132.032 134.956 132.033Z" fill="#2F0E1B"/>
<path d="M136.731 131.749C136.717 131.75 136.702 131.745 136.69 131.735C136.67 131.715 136.669 131.682 136.689 131.662C136.706 131.643 137.126 131.207 137.44 131.428C137.463 131.445 137.469 131.477 137.453 131.5C137.436 131.523 137.404 131.529 137.381 131.513C137.139 131.343 136.767 131.729 136.763 131.733C136.754 131.742 136.743 131.747 136.731 131.749Z" fill="#2F0E1B"/>
<path d="M137.357 132.09C137.365 132.169 137.307 132.239 137.228 132.247C137.149 132.255 137.079 132.197 137.071 132.118C137.063 132.039 137.121 131.968 137.2 131.961C137.279 131.953 137.35 132.011 137.357 132.09Z" fill="#010103"/>
<path d="M135.932 132.206C135.94 132.285 135.882 132.355 135.803 132.362C135.724 132.37 135.654 132.312 135.646 132.233C135.639 132.154 135.696 132.084 135.776 132.076C135.855 132.069 135.925 132.127 135.932 132.206Z" fill="#010103"/>
<path d="M134.329 133.001C134.372 133.444 134.047 133.837 133.604 133.88C133.161 133.923 132.767 133.598 132.724 133.155C132.682 132.712 133.006 132.318 133.449 132.276C133.892 132.233 134.286 132.557 134.329 133.001Z" fill="#FC8759"/>
<path d="M133.515 133.579C133.347 133.595 133.222 133.48 133.173 133.357C133.115 133.211 133.151 133.061 133.265 132.974C133.428 132.849 133.591 132.897 133.682 132.943C133.639 132.861 133.581 132.803 133.507 132.772C133.342 132.701 133.154 132.782 133.152 132.783C133.139 132.789 133.124 132.783 133.118 132.77C133.112 132.757 133.118 132.742 133.131 132.736C133.14 132.732 133.342 132.644 133.528 132.724C133.635 132.77 133.714 132.863 133.762 132.999L133.793 133.086L133.722 133.027C133.713 133.02 133.506 132.855 133.296 133.015C133.181 133.103 133.183 133.244 133.221 133.337C133.26 133.435 133.36 133.544 133.514 133.527C133.528 133.525 133.541 133.535 133.543 133.55C133.544 133.564 133.534 133.577 133.52 133.578C133.518 133.579 133.517 133.579 133.515 133.579Z" fill="#FB554B"/>
<path d="M137.34 130.639C137.34 130.639 136.977 129.428 135.311 129.452C133.646 129.475 133.543 130.736 133.543 130.736L135.465 130.936L137.217 130.643L137.34 130.639Z" fill="#FC8759"/>
<path d="M137.239 129.593C137.239 129.593 136.309 130.699 134.953 130.599C134.953 130.599 134.665 132.271 133.693 132.289C132.721 132.307 133.028 130 133.028 130C133.028 130 134.761 129.091 134.876 129.08C134.99 129.069 136.892 128.77 136.892 128.77L137.239 129.593Z" fill="#FDBA68"/>
<path d="M136.949 133.566C136.934 133.562 135.97 133.463 135.97 133.463C135.97 133.463 136.06 133.872 136.418 133.91C136.776 133.947 136.949 133.566 136.949 133.566Z" fill="#FBFDFA"/>
<path d="M128.985 136.642C128.542 136.733 128.107 136.899 127.698 137.131C127.7 137.136 127.702 137.141 127.704 137.146C128.092 138.064 128.637 138.899 129.304 139.619C129.324 139.64 129.344 139.662 129.364 139.682C129.385 139.705 129.406 139.727 129.428 139.75C130.976 141.35 133.146 142.346 135.55 142.346C136.863 142.346 138.107 142.049 139.218 141.517C139.426 141.418 139.629 141.31 139.827 141.195C139.861 141.175 139.895 141.156 139.928 141.135C140.018 141.081 140.107 141.025 140.195 140.968C140.226 140.948 140.256 140.928 140.286 140.908C140.899 140.497 141.456 140.008 141.942 139.456C142.119 139.256 142.286 139.047 142.443 138.831C142.784 138.361 143.079 137.855 143.319 137.32C142.898 137.039 142.073 136.83 141.131 136.676C140.4 136.556 139.599 136.469 138.863 136.407C138.096 136.341 137.399 136.302 136.925 136.28C136.532 136.262 136.293 136.256 136.293 136.256C136.293 136.256 135.33 136.261 134.08 136.292C133.515 136.306 132.892 136.326 132.272 136.353C132.27 136.353 132.269 136.353 132.268 136.353H132.268C131.793 136.374 131.321 136.399 130.878 136.43C130.222 136.475 129.633 136.532 129.199 136.603C129.164 136.608 129.131 136.614 129.099 136.62C129.095 136.621 129.091 136.621 129.088 136.622C129.062 136.627 129.037 136.631 129.012 136.636C129.003 136.638 128.994 136.64 128.985 136.642Z" fill="#FA2C3C"/>
<path d="M127.669 137.062C127.679 137.085 127.688 137.108 127.698 137.132C127.7 137.137 127.702 137.142 127.704 137.146C127.863 137.063 128.026 136.993 128.19 136.939C128.475 136.845 128.825 136.761 129.237 136.688C129.695 136.607 130.229 136.539 130.837 136.485C130.862 136.483 130.881 136.461 130.879 136.435C130.879 136.434 130.878 136.432 130.878 136.43C130.873 136.407 130.852 136.391 130.829 136.394C130.209 136.449 129.664 136.519 129.198 136.602C129.165 136.608 129.131 136.614 129.099 136.621C129.095 136.621 129.092 136.622 129.088 136.623C129.053 136.629 129.018 136.636 128.985 136.643C128.669 136.705 128.394 136.775 128.161 136.852C127.995 136.907 127.83 136.977 127.669 137.062Z" fill="#010103"/>
<path d="M138.863 136.407C138.863 136.407 135.623 139.636 132.267 136.354C132.267 136.354 136.103 135.922 138.863 136.407Z" fill="#FC8759"/>
<path d="M144.061 235.995C144.061 238.231 143.2 240.265 141.792 241.784C141.772 241.805 141.752 241.826 141.732 241.847C141.711 241.87 141.69 241.892 141.668 241.914C140.12 243.515 137.95 244.511 135.546 244.511C134.233 244.511 132.989 244.213 131.878 243.682C130.835 243.183 129.909 242.479 129.154 241.621C128.977 241.42 128.81 241.212 128.653 240.995C127.633 239.591 127.031 237.863 127.031 235.995C127.031 231.292 130.843 227.48 135.546 227.48C140.249 227.48 144.061 231.292 144.061 235.995Z" fill="#5AB3BF"/>
<path d="M133.817 239.966C133.817 239.966 133.753 240.088 133.641 240.302C133.6 240.381 133.552 240.471 133.5 240.572C133.319 240.917 133.073 241.388 132.791 241.929C132.767 241.975 132.742 242.022 132.718 242.07C132.457 242.569 132.169 243.121 131.878 243.682C130.835 243.184 129.909 242.479 129.154 241.621C128.977 241.42 128.81 241.212 128.653 240.995C128.759 240.892 128.874 240.804 128.998 240.734C130.256 240.022 132.625 239.959 133.49 239.961C133.696 239.961 133.817 239.966 133.817 239.966Z" fill="#F85772"/>
<path d="M129.154 241.621C129.554 241.041 130.048 240.64 130.659 240.555C131.329 240.462 132.396 240.38 133.485 240.312C133.537 240.309 133.589 240.306 133.641 240.303C135.19 240.209 136.749 240.146 137.244 240.127C137.348 240.123 137.405 240.121 137.405 240.121C137.405 240.121 137.419 240.125 137.442 240.13C137.577 240.165 138.023 240.277 137.847 240.195C139.6 240.505 140.847 241.136 141.732 241.847C141.711 241.87 141.689 241.892 141.667 241.915C140.12 243.515 137.949 244.511 135.546 244.511C134.232 244.511 132.988 244.214 131.877 243.682C130.835 243.184 129.909 242.479 129.154 241.621Z" fill="#F85772"/>
<path d="M135.671 243.513C135.74 243.52 135.811 243.527 135.883 243.532C135.924 243.534 135.96 243.504 135.962 243.462C135.965 243.421 135.936 243.386 135.893 243.383C132.802 243.166 132.228 240.903 132.224 240.88C132.216 240.84 132.178 240.813 132.138 240.82C132.098 240.827 132.07 240.863 132.076 240.903C132.08 240.926 132.65 243.201 135.671 243.513Z" fill="#0D060E"/>
<path d="M137.429 240.038C139.459 240.322 140.85 241.028 141.792 241.784C141.772 241.805 141.752 241.826 141.732 241.847C141.711 241.87 141.69 241.892 141.668 241.914C140.756 241.186 139.413 240.505 137.457 240.223C137.412 240.217 137.366 240.21 137.321 240.204C137.28 240.198 137.249 240.166 137.244 240.127C137.243 240.119 137.243 240.111 137.244 240.104C137.25 240.054 137.296 240.02 137.345 240.026C137.373 240.03 137.401 240.034 137.429 240.038Z" fill="#0D060E"/>
<path d="M135.492 242.316C134.356 242.329 133.44 241.063 133.484 239.54L133.597 237.366L137.184 237.348L137.352 239.556C137.457 241.105 136.65 242.302 135.492 242.316Z" fill="#FC8759"/>
<path d="M133.554 238.879C134.196 240.437 136.996 240.295 137.279 238.757L137.184 237.348L133.597 237.366L133.554 238.879Z" fill="#FB554B"/>
<path d="M137.558 235.037C137.561 235.582 138.005 236.022 138.55 236.019C139.095 236.016 139.535 235.572 139.532 235.027C139.529 234.483 139.085 234.043 138.54 234.046C137.995 234.048 137.556 234.492 137.558 235.037Z" fill="#FC8759"/>
<path d="M138.621 235.641C138.828 235.64 138.966 235.483 139.011 235.328C139.064 235.144 139.001 234.965 138.851 234.873C138.637 234.742 138.444 234.82 138.339 234.887C138.381 234.782 138.445 234.704 138.531 234.657C138.724 234.55 138.963 234.626 138.965 234.627C138.982 234.632 139 234.623 139.005 234.607C139.01 234.59 139.001 234.572 138.985 234.567C138.974 234.563 138.717 234.481 138.5 234.602C138.375 234.671 138.29 234.794 138.248 234.965L138.221 235.075L138.301 234.995C138.311 234.985 138.542 234.758 138.818 234.927C138.97 235.02 138.984 235.192 138.95 235.311C138.914 235.435 138.805 235.579 138.616 235.578C138.599 235.577 138.584 235.592 138.584 235.609C138.584 235.627 138.598 235.641 138.615 235.641C138.617 235.641 138.619 235.641 138.621 235.641Z" fill="#FB554B"/>
<path d="M138.285 234.345C138.701 229.058 130.46 226.853 132.51 236.028C133.565 239.994 138.472 239.501 138.285 234.345Z" fill="#FC8759"/>
<path d="M132.917 235.061C132.92 235.606 132.48 236.05 131.935 236.053C131.39 236.056 130.946 235.616 130.943 235.071C130.941 234.526 131.38 234.082 131.925 234.079C132.47 234.077 132.914 234.516 132.917 235.061Z" fill="#FC8759"/>
<path d="M131.86 235.676C131.653 235.677 131.514 235.522 131.468 235.366C131.413 235.183 131.474 235.004 131.623 234.91C131.835 234.777 132.029 234.853 132.135 234.919C132.092 234.814 132.027 234.737 131.941 234.691C131.747 234.586 131.509 234.664 131.506 234.665C131.49 234.671 131.472 234.662 131.466 234.645C131.46 234.629 131.469 234.611 131.486 234.605C131.497 234.602 131.753 234.517 131.971 234.635C132.097 234.703 132.183 234.825 132.226 234.996L132.254 235.106L132.174 235.026C132.164 235.017 131.93 234.792 131.656 234.964C131.505 235.058 131.493 235.23 131.528 235.348C131.565 235.472 131.676 235.616 131.865 235.612C131.882 235.612 131.897 235.626 131.897 235.643C131.897 235.661 131.884 235.675 131.866 235.676C131.864 235.675 131.862 235.676 131.86 235.676Z" fill="#FB554B"/>
<path d="M134.367 234.426C134.368 234.537 134.278 234.627 134.167 234.628C134.055 234.629 133.965 234.539 133.964 234.428C133.963 234.316 134.053 234.226 134.165 234.225C134.276 234.225 134.367 234.314 134.367 234.426Z" fill="#010103"/>
<path d="M136.446 234.454C136.446 234.565 136.537 234.655 136.648 234.655C136.759 234.654 136.849 234.563 136.849 234.452C136.848 234.341 136.757 234.251 136.646 234.252C136.535 234.252 136.445 234.343 136.446 234.454Z" fill="#010103"/>
<path d="M137.477 234.1C137.439 234.1 137.402 234.087 137.371 234.061C136.897 233.663 136.215 233.889 136.208 233.891C136.122 233.92 136.029 233.875 136 233.789C135.97 233.704 136.016 233.611 136.101 233.581C136.136 233.569 136.964 233.291 137.582 233.81C137.651 233.868 137.66 233.972 137.602 234.041C137.569 234.079 137.523 234.099 137.477 234.1Z" fill="#2D0F28"/>
<path d="M133.369 234.105C133.322 234.105 133.274 234.085 133.241 234.045C133.184 233.974 133.194 233.871 133.265 233.814C133.89 233.304 134.713 233.593 134.748 233.606C134.833 233.636 134.877 233.73 134.847 233.816C134.816 233.901 134.722 233.945 134.637 233.914C134.63 233.912 133.951 233.677 133.472 234.068C133.442 234.093 133.405 234.105 133.369 234.105Z" fill="#2D0F28"/>
<path d="M134.837 236.557C134.856 236.553 136.057 236.521 136.057 236.521C136.057 236.521 135.908 237.019 135.462 237.032C135.015 237.045 134.837 236.557 134.837 236.557Z" fill="#FBFDFA"/>
<path d="M138.299 230.403C137.613 229.156 133.062 228.575 132.08 230.359C131.868 230.743 131.902 233.867 132.062 234.124C132.221 234.381 132.579 234.488 132.579 234.488C132.579 234.488 132.608 231.95 132.757 231.616C132.906 231.282 133.773 230.603 134.417 231.163C134.754 231.456 134.998 231.5 135.155 231.476C135.306 231.522 135.569 231.513 135.954 231.184C136.603 230.63 137.464 231.318 137.61 231.653C137.755 231.988 137.759 234.526 137.759 234.526C137.759 234.526 138.117 234.423 138.28 234.168C138.442 233.912 138.511 230.787 138.299 230.403Z" fill="#2D0F28"/>
<path d="M135.849 235.63C135.862 235.629 135.873 235.62 135.876 235.607C135.88 235.59 135.87 235.574 135.854 235.57L135.232 235.418L135.309 233.976C135.31 233.96 135.297 233.945 135.281 233.945C135.264 233.943 135.25 233.957 135.249 233.973L135.169 235.465L135.839 235.629C135.843 235.63 135.846 235.63 135.849 235.63Z" fill="#FB554B"/>
<path d="M136.831 236.608C136.824 236.222 136.57 235.876 136.197 235.774C135.844 235.678 135.415 235.691 135.041 235.723C133.471 235.649 134.032 238.763 135.159 238.903C136.863 239.132 136.852 237.728 136.831 236.608ZM134.596 236.379C134.71 236.151 135.68 236.08 136.175 236.246C136.318 236.293 136.42 236.424 136.429 236.574C136.463 237.166 136.091 238.337 135.636 237.273L135.327 237.283C134.909 238.718 134.349 236.743 134.596 236.379Z" fill="#2D0F28"/>
<path d="M200.475 101.166H121.788C119.806 101.166 118.199 102.773 118.199 104.755V113.357H204.064V104.755C204.064 102.773 202.457 101.166 200.475 101.166Z" fill="#D5EFF4"/>
<path d="M198.888 97.6102H123.375C118.515 97.6102 114.575 101.55 114.575 106.41V268.392C114.575 273.252 118.515 277.192 123.375 277.192H198.888C203.748 277.192 207.688 273.252 207.688 268.392V106.41C207.688 101.55 203.748 97.6102 198.888 97.6102ZM204.064 266.833C204.064 269.473 201.924 271.613 199.284 271.613H122.979C120.339 271.613 118.199 269.473 118.199 266.833V106.499C118.199 103.553 120.587 101.166 123.532 101.166H198.731C201.677 101.166 204.064 103.553 204.064 106.499V266.833Z" fill="#0D060E"/>
<path d="M123.888 108.514C124.542 108.514 125.073 107.983 125.073 107.329C125.073 106.674 124.542 106.143 123.888 106.143C123.233 106.143 122.702 106.674 122.702 107.329C122.702 107.983 123.233 108.514 123.888 108.514Z" fill="#5AB3BF"/>
<path d="M127.554 108.514C128.209 108.514 128.739 107.983 128.739 107.329C128.739 106.674 128.209 106.143 127.554 106.143C126.9 106.143 126.369 106.674 126.369 107.329C126.369 107.983 126.9 108.514 127.554 108.514Z" fill="#5AB3BF"/>
<path d="M131.221 108.514C131.875 108.514 132.406 107.983 132.406 107.329C132.406 106.674 131.875 106.143 131.221 106.143C130.566 106.143 130.036 106.674 130.036 107.329C130.036 107.983 130.566 108.514 131.221 108.514Z" fill="#5AB3BF"/>
<path d="M188.519 105.195V106.041H188.041V107.493H188.519V108.514H197.836V105.195H188.519ZM197.517 108.243H188.838V105.467H197.517V108.243Z" fill="#5AB3BF"/>
<path d="M196.989 105.899H196.068V107.796H196.989V105.899Z" fill="#5AB3BF"/>
<path d="M195.445 105.899H194.525V107.796H195.445V105.899Z" fill="#5AB3BF"/>
<path d="M193.859 105.899H192.938V107.796H193.859V105.899Z" fill="#5AB3BF"/>
<path d="M114.569 198.044V254.277L71.8315 259.226C71.8315 259.226 72.7479 219.004 76.5634 212.573C80.379 206.141 88.9265 193.995 91.6259 186.797C94.325 179.599 103.323 175.55 110.52 169.702C117.718 163.853 116.369 153.056 123.117 155.306C129.865 157.555 134.814 171.951 127.616 181.398C120.418 190.846 114.569 198.044 114.569 198.044Z" fill="#FE9F73"/>
<path d="M71.8317 261.492C71.8276 261.492 71.8236 261.492 71.8194 261.491C71.5935 261.485 71.4158 261.296 71.4224 261.07C71.4274 260.899 71.9393 243.804 73.1362 228.476C74.1911 214.965 76.1848 211.987 79.4877 207.052C79.9968 206.292 80.5233 205.505 81.0855 204.621C83.2321 201.243 85.3237 197.25 87.3464 193.389C89.2269 189.799 91.0033 186.409 92.5864 183.994C95.8395 179.033 108.446 171.008 108.981 170.668C109.172 170.547 109.425 170.604 109.546 170.795C109.667 170.986 109.61 171.239 109.42 171.36C109.29 171.442 96.4275 179.63 93.2711 184.443C91.7099 186.824 89.9426 190.197 88.0716 193.769C86.0409 197.645 83.9414 201.653 81.7765 205.059C81.209 205.952 80.6798 206.743 80.1681 207.508C76.9394 212.331 74.9907 215.242 73.9524 228.539C72.7571 243.848 72.2459 260.924 72.2409 261.094C72.234 261.316 72.0521 261.492 71.8317 261.492Z" fill="#010103"/>
<path d="M114.569 198.412C114.479 198.412 114.389 198.383 114.313 198.322C114.137 198.181 114.108 197.923 114.25 197.747L119.715 190.932C131.244 178.641 130.751 170.653 130.745 170.574C130.357 163.889 128.124 160.105 126.32 158.105C124.372 155.947 122.489 155.346 122.471 155.34C122.255 155.274 122.133 155.045 122.2 154.829C122.266 154.613 122.494 154.492 122.71 154.558C122.794 154.583 124.79 155.21 126.886 157.512C128.796 159.609 131.158 163.568 131.562 170.517C131.59 170.842 132.127 178.891 120.323 191.48L114.888 198.258C114.808 198.36 114.689 198.412 114.569 198.412Z" fill="#010103"/>
<path d="M123.77 158.16C122.255 157.162 120.747 156.382 119.331 155.77C116.826 157.856 116.084 163.764 112.155 168.139C112.156 168.139 112.157 168.139 112.157 168.139C112.157 168.139 114.733 169.519 117.352 169.519C119.971 169.519 120.857 168.527 120.857 168.527L124.504 161.81C125.211 160.506 124.894 158.899 123.77 158.16Z" fill="#FB554B"/>
<path d="M123.391 158.935C124.144 159.43 124.792 160.716 124.591 161.639L124.726 161.389C125.321 160.294 124.727 158.616 123.783 157.995C122.273 157.002 120.774 156.264 119.4 155.715C119.123 155.935 118.868 156.201 118.627 156.506C120.102 157.068 121.741 157.849 123.391 158.935Z" fill="#FCB6A9"/>
<path d="M84.6557 263.554C84.5273 263.554 84.4026 263.488 84.3324 263.37C81.9745 259.392 82.3723 252.034 82.3904 251.723C82.4025 251.516 82.5799 251.36 82.7869 251.37C82.9939 251.382 83.152 251.56 83.1399 251.767C83.1355 251.841 82.7378 259.207 84.9783 262.987C85.084 263.166 85.0251 263.396 84.8467 263.502C84.7867 263.537 84.7207 263.554 84.6557 263.554Z" fill="#010103"/>
<path d="M89.2784 265.9C89.1781 265.9 89.0783 265.86 89.0042 265.781C85.8435 262.405 84.6448 255.135 84.5951 254.828C84.5623 254.623 84.7014 254.43 84.906 254.398C85.1112 254.364 85.3034 254.504 85.3363 254.709C85.348 254.782 86.5488 262.06 89.5523 265.268C89.6938 265.42 89.686 265.657 89.5346 265.799C89.4623 265.867 89.3703 265.9 89.2784 265.9Z" fill="#010103"/>
<path d="M104.665 187.853C104.587 187.853 104.508 187.831 104.438 187.785C101.099 185.559 96.4309 184.415 96.3842 184.404C96.1645 184.351 96.0293 184.13 96.0823 183.91C96.1354 183.691 96.3572 183.555 96.576 183.609C96.7727 183.656 101.434 184.798 104.892 187.104C105.08 187.229 105.131 187.483 105.006 187.671C104.927 187.789 104.797 187.853 104.665 187.853Z" fill="#010103"/>
<path d="M102.209 190.636C102.131 190.636 102.053 190.614 101.983 190.567C98.6439 188.342 93.9754 187.198 93.9287 187.187C93.7089 187.134 93.5737 186.913 93.6268 186.693C93.6797 186.474 93.9017 186.339 94.1205 186.391C94.3172 186.439 98.9782 187.581 102.437 189.886C102.625 190.012 102.676 190.266 102.55 190.454C102.471 190.572 102.342 190.636 102.209 190.636Z" fill="#010103"/>
<path d="M191.223 147.815L189.307 145.151C189.217 145.025 189.245 144.849 189.371 144.758C189.498 144.667 189.673 144.696 189.764 144.822L191.244 146.88L194.943 142.187C195.039 142.065 195.216 142.044 195.338 142.141C195.46 142.237 195.481 142.414 195.384 142.536L191.223 147.815Z" fill="#5AB3BF"/>
<path d="M191.223 215.848L189.307 213.184C189.217 213.058 189.245 212.882 189.371 212.792C189.498 212.701 189.673 212.73 189.764 212.856L191.244 214.913L194.943 210.221C195.039 210.099 195.216 210.078 195.338 210.174C195.46 210.27 195.481 210.447 195.384 210.569L191.223 215.848Z" fill="#5AB3BF"/>
<path d="M304.159 297.662C304.146 297.929 304.13 298.203 304.108 298.483C303.897 301.269 303.25 304.527 301.503 306.265L300.167 307.178C300.165 307.178 300.163 307.18 300.162 307.18L299.601 307.561C299.599 307.561 299.599 307.563 299.599 307.565L267.013 329.777C267.013 329.777 267.012 329.777 267.012 329.779C259.999 334.558 251.06 328.197 247.163 324.859C247.154 324.853 247.147 324.846 247.139 324.838C246.51 324.251 245.863 323.657 245.204 323.052C245.201 323.049 245.199 323.047 245.199 323.047C237.089 315.608 227.016 306.888 220.329 302.93C211.836 297.906 199.43 285.028 191.368 275.998C191.176 275.781 190.984 275.565 190.795 275.352C190.149 274.626 189.535 273.927 188.957 273.264C188.762 273.041 188.573 272.822 188.387 272.606C185.846 269.676 184.079 267.509 183.522 266.733C182.663 265.533 179.923 262.423 176.882 259.054C173.571 255.388 169.902 251.415 167.909 249.266C167.692 249.031 167.495 248.818 167.321 248.629C167.288 248.595 167.257 248.562 167.228 248.53C166.716 247.979 166.421 247.663 166.421 247.663C164.376 241.241 174.228 235.014 182.779 238.517C191.33 242.019 206.943 256.226 206.943 256.226C206.943 256.226 172.898 180.925 170.138 175.075C166.606 167.584 170.468 160.578 177.759 161.647C182.199 162.299 199.694 192.346 199.694 192.346L215.607 219.965L215.868 220.418C218.842 208.158 231.667 209.326 231.667 209.326C238.359 204.265 247.84 205.433 247.84 205.433C247.84 205.433 250.256 203.099 261.224 202.708C272.19 202.32 279.254 238.516 282.043 245.327C284.277 250.787 298.569 284.491 304.159 297.662Z" fill="#FE9F73"/>
<path d="M192.879 268.501C192.859 268.581 192.815 268.653 192.751 268.712C191.253 270.069 189.926 271.822 188.956 273.265C188.761 273.042 188.572 272.823 188.386 272.607C189.371 271.159 190.698 269.433 192.212 268.061C192.385 267.904 192.644 267.923 192.793 268.103C192.888 268.217 192.915 268.366 192.879 268.501Z" fill="black"/>
<path d="M194.923 271.775C194.901 271.853 194.859 271.927 194.795 271.984C193.481 273.177 192.294 274.677 191.368 275.999C191.175 275.782 190.984 275.567 190.795 275.353C191.73 274.027 192.921 272.542 194.255 271.333C194.428 271.178 194.688 271.197 194.837 271.376C194.93 271.49 194.957 271.639 194.923 271.775Z" fill="black"/>
<path d="M165.758 250.978C165.764 250.991 165.771 251.005 165.78 251.018C165.771 251.005 165.764 250.993 165.756 250.98C165.756 250.98 165.756 250.978 165.758 250.978Z" fill="#F07162"/>
<path d="M177.772 254.575C177.534 256.203 176.782 257.729 176.262 258.634C172.951 254.968 169.901 251.416 167.908 249.267C167.691 249.032 167.495 248.819 167.32 248.63C167.726 248.078 168.167 247.523 168.64 246.972C169.457 246.024 170.911 245.915 172.018 246.685C172.073 246.721 172.125 246.759 172.176 246.801L177.345 250.978C177.345 250.978 178.149 251.999 177.772 254.575Z" fill="#FB554B"/>
<path d="M172.029 246.689C172.025 246.687 172.022 246.685 172.018 246.685C171.179 246.355 169.887 246.799 169.315 247.462C168.8 248.062 168.332 248.667 167.908 249.267C167.691 249.033 167.495 248.819 167.32 248.63C167.287 248.596 167.256 248.564 167.227 248.531C167.611 248 168.03 247.466 168.487 246.936C169.207 246.1 170.869 245.768 171.812 246.517L172.029 246.689Z" fill="#FDC9BC"/>
<path d="M178.582 164.109C178.166 163.361 177.211 163.094 176.406 163.529L171.346 166.259C170.499 166.716 170.165 167.704 170.567 168.491L170.563 168.494L170.607 168.569L174.475 175.182L174.513 175.248L174.517 175.246C174.942 175.881 175.862 176.033 176.619 175.587L181.145 172.915C181.867 172.489 182.197 171.62 181.909 170.931L181.912 170.929L181.88 170.863L178.623 164.182L178.586 164.106L178.582 164.109Z" fill="#FB554B"/>
<path d="M178.582 164.109C178.166 163.361 177.211 163.094 176.406 163.529L171.346 166.259C170.499 166.716 170.165 167.705 170.567 168.492L170.563 168.494L170.607 168.569L170.962 169.176L170.966 169.173C170.569 168.396 170.902 167.416 171.742 166.96L176.761 164.233C177.56 163.799 178.506 164.058 178.917 164.796L178.921 164.794L178.623 164.182L178.585 164.107L178.582 164.109Z" fill="#FDC9BC"/>
<path d="M245.199 309.712C245.209 309.861 245.291 310.001 245.428 310.074C250.016 312.503 258.149 311.469 258.493 311.424C258.721 311.394 258.882 311.176 258.855 310.936C258.826 310.697 258.618 310.527 258.389 310.557C258.307 310.567 250.165 311.602 245.804 309.294C245.599 309.185 245.348 309.271 245.244 309.486C245.208 309.559 245.195 309.637 245.199 309.712Z" fill="black"/>
<path d="M242.254 304.526C242.261 304.642 242.313 304.755 242.406 304.835C246.386 308.243 254.54 309.071 254.885 309.104C255.115 309.126 255.318 308.95 255.339 308.71C255.361 308.469 255.192 308.256 254.962 308.234C254.88 308.226 246.717 307.397 242.934 304.159C242.756 304.006 242.493 304.034 242.347 304.22C242.277 304.31 242.247 304.419 242.254 304.526Z" fill="black"/>
<path d="M183.23 266.963C182.495 265.936 180.27 263.364 176.617 259.317C173.269 255.61 169.56 251.595 167.647 249.532L167.059 248.895C167.028 248.863 166.994 248.828 166.962 248.793C166.455 248.247 166.16 247.93 166.16 247.93L166.102 247.868L166.076 247.785C165.317 245.405 166.073 242.856 168.149 240.791C171.218 237.737 177.274 235.853 182.911 238.163C190.083 241.1 201.946 251.295 205.886 254.781C200.924 243.81 172.312 180.549 169.811 175.245C167.937 171.269 167.99 167.197 169.954 164.351C171.64 161.908 174.502 160.785 177.809 161.271L177.708 162.025C174.678 161.582 172.067 162.591 170.544 164.797C168.741 167.41 168.711 171.19 170.464 174.908C173.192 180.693 206.931 255.311 207.272 256.065L208.015 257.708L206.704 256.515C206.549 256.374 191.04 242.311 182.646 238.873C177.293 236.68 171.553 238.456 168.651 241.343C166.785 243.2 166.109 245.369 166.741 247.462C166.851 247.58 167.111 247.859 167.488 248.266C167.519 248.3 167.547 248.329 167.577 248.36L168.17 249.002C170.084 251.066 173.795 255.083 177.146 258.794C180.818 262.862 183.061 265.457 183.813 266.506L183.23 266.963Z" fill="black"/>
<path d="M215.963 220.283L220.672 227.873L217.085 217.229L215.963 220.283Z" fill="#F07162"/>
<path d="M231.769 209.719L238.858 221.935L233.499 208.185L231.795 209.288L231.769 209.719Z" fill="#F07162"/>
<path d="M247.77 205.772L254.705 217.229L249.547 204.731L247.77 205.772Z" fill="#F07162"/>
<path d="M304.19 296.8C304.184 297.077 304.173 297.364 304.159 297.662C304.146 297.928 304.13 298.203 304.108 298.483C298.731 285.811 283.966 250.998 281.707 245.478C281.086 243.965 280.275 241.072 279.244 237.41C277.448 231.017 274.985 222.261 271.927 215.211C268.436 207.166 264.893 203.088 261.394 203.088C261.342 203.088 261.289 203.088 261.236 203.09C254.815 203.319 251.354 204.226 249.622 204.91C248.491 205.357 248.095 205.708 248.084 205.718L247.962 205.83L247.798 205.813C247.798 205.813 247.796 205.813 247.794 205.813C247.576 205.786 239.864 204.933 233.619 208.494C233.024 208.831 232.441 209.212 231.879 209.637L231.77 209.719L231.635 209.708C231.602 209.704 228.441 209.437 224.973 210.645C221.335 211.912 218.734 214.247 217.21 217.604C216.803 218.502 216.473 219.471 216.22 220.514L216.084 220.478L215.867 220.418L215.514 220.325C215.543 220.203 215.574 220.083 215.607 219.965C217.252 213.722 221.479 211.055 224.768 209.913C228.002 208.793 230.898 208.896 231.56 208.938C237.9 204.224 246.453 204.906 247.732 205.039C248.386 204.547 251.487 202.674 261.211 202.329C261.273 202.326 261.336 202.326 261.398 202.326C270.142 202.326 276.27 224.13 279.944 237.194C280.967 240.832 281.773 243.705 282.377 245.178C284.557 250.506 298.403 283.159 304.19 296.8Z" fill="black"/>
<path d="M227.56 191.825C228.327 192.15 229.116 192.459 229.906 192.745L230.121 192.823L229.965 193.254L229.75 193.176C228.953 192.888 228.156 192.575 227.381 192.247L227.17 192.158L227.349 191.736L227.56 191.825ZM232.296 193.538C233.106 193.782 233.923 194.004 234.726 194.197L234.949 194.25L234.842 194.696L234.619 194.642C233.808 194.448 232.982 194.224 232.164 193.977L231.944 193.911L232.077 193.472L232.296 193.538ZM250.84 166.955L251.003 166.793L251.326 167.119L251.163 167.281C250.847 167.593 250.57 167.952 250.339 168.346C250.338 168.346 250.338 168.347 250.338 168.347C250.162 168.647 250.01 168.974 249.884 169.319L249.806 169.534L249.375 169.378L249.453 169.163C249.588 168.792 249.753 168.439 249.942 168.116C249.942 168.115 249.943 168.115 249.943 168.114C250.194 167.686 250.496 167.295 250.84 166.955ZM249.451 171.475L249.465 171.704C249.514 172.455 249.838 173.169 250.429 173.825L250.582 173.995L250.242 174.302L250.088 174.132C249.426 173.397 249.063 172.59 249.008 171.733L248.993 171.504L249.451 171.475ZM253.067 165.596C253.847 165.329 254.71 165.197 255.631 165.204L255.86 165.206L255.857 165.665L255.627 165.663C254.758 165.656 253.947 165.78 253.215 166.03L252.998 166.104L252.85 165.67L253.067 165.596ZM237.189 194.708C238.028 194.855 238.866 194.971 239.679 195.055L239.907 195.078L239.861 195.534L239.633 195.511C238.809 195.426 237.96 195.308 237.111 195.16L236.885 195.12L236.963 194.669L237.189 194.708ZM252.388 175.264C253.076 175.613 253.858 175.898 254.711 176.113L254.934 176.168L254.822 176.613L254.599 176.557C253.713 176.335 252.899 176.037 252.181 175.673L251.976 175.57L252.184 175.161L252.388 175.264ZM258.187 165.558C259.005 165.774 259.814 166.083 260.59 166.478L260.795 166.582L260.587 166.99L260.383 166.887C259.635 166.507 258.857 166.209 258.07 166.001L257.848 165.943L257.965 165.5L258.187 165.558ZM242.186 195.217C243.034 195.238 243.878 195.223 244.694 195.173L244.923 195.159L244.951 195.616L244.723 195.63C243.894 195.682 243.036 195.697 242.174 195.675L241.945 195.67L241.957 195.211L242.186 195.217ZM257.168 176.513C257.975 176.58 258.815 176.592 259.665 176.548L259.893 176.536L259.917 176.993L259.689 177.005C258.818 177.051 257.958 177.039 257.13 176.97L256.902 176.951L256.94 176.494L257.168 176.513ZM262.573 167.73L262.752 167.874C263.016 168.087 263.271 168.311 263.51 168.541C263.894 168.907 264.244 169.304 264.553 169.72L264.69 169.904L264.322 170.177L264.185 169.993C263.891 169.598 263.558 169.221 263.193 168.872C262.963 168.651 262.717 168.436 262.464 168.231L262.286 168.087L262.573 167.73ZM247.185 194.899C248.017 194.766 248.841 194.589 249.633 194.375L249.854 194.315L249.974 194.757L249.753 194.817C248.945 195.036 248.105 195.216 247.257 195.351L247.031 195.388L246.959 194.935L247.185 194.899ZM262.148 176.264C262.959 176.122 263.779 175.931 264.585 175.695L264.805 175.63L264.934 176.07L264.714 176.135C263.891 176.375 263.054 176.571 262.227 176.715L262.001 176.755L261.923 176.303L262.148 176.264ZM252.006 193.585C252.781 193.277 253.542 192.921 254.27 192.527L254.471 192.418L254.69 192.821L254.488 192.93C253.745 193.333 252.967 193.697 252.175 194.011L251.962 194.096L251.793 193.67L252.006 193.585ZM265.702 171.778L265.781 171.993C266.071 172.782 266.261 173.629 266.343 174.512L266.365 174.74L265.908 174.783L265.887 174.555C265.808 173.712 265.627 172.903 265.351 172.152L265.271 171.937L265.702 171.778ZM256.395 191.209C257.076 190.731 257.742 190.214 258.375 189.672L258.548 189.522L258.847 189.87L258.673 190.02C258.03 190.571 257.352 191.098 256.658 191.584L256.47 191.715L256.207 191.34L256.395 191.209ZM266.948 174.865C267.711 174.552 268.474 174.193 269.215 173.798L269.417 173.69L269.632 174.095L269.43 174.203C268.676 174.605 267.899 174.97 267.122 175.289L266.91 175.376L266.736 174.952L266.948 174.865ZM266.328 176.857L266.301 177.085C266.203 177.903 266.025 178.748 265.772 179.595L265.706 179.814L265.267 179.683L265.332 179.463C265.578 178.642 265.751 177.823 265.845 177.03L265.873 176.803L266.328 176.857ZM260.195 187.949C260.775 187.342 261.326 186.705 261.833 186.053L261.974 185.872L262.336 186.154L262.195 186.335C261.679 186.998 261.117 187.648 260.526 188.265L260.367 188.431L260.036 188.114L260.195 187.949ZM264.959 181.779L264.863 181.988C264.516 182.743 264.108 183.502 263.653 184.239L263.533 184.434L263.143 184.193L263.263 183.998C263.709 183.275 264.107 182.534 264.447 181.796L264.543 181.588L264.959 181.779ZM271.36 172.51C272.033 172.049 272.695 171.531 273.327 170.969L273.499 170.817L273.803 171.16L273.632 171.312C272.985 171.886 272.308 172.416 271.619 172.888L271.43 173.018L271.171 172.64L271.36 172.51ZM283.425 153.511L283.366 153.732C283.15 154.548 282.911 155.369 282.655 156.172L282.585 156.391L282.148 156.251L282.218 156.033C282.472 155.237 282.709 154.423 282.923 153.615L282.981 153.394L283.425 153.511ZM281.9 158.358L281.819 158.573C281.516 159.375 281.191 160.166 280.853 160.925L280.76 161.134L280.341 160.948L280.434 160.738C280.768 159.987 281.09 159.204 281.39 158.411L281.471 158.196L281.9 158.358ZM275.103 169.205C275.647 168.602 276.181 167.949 276.689 167.264L276.826 167.08L277.194 167.353L277.057 167.537C276.541 168.233 275.997 168.898 275.443 169.512L275.289 169.682L274.949 169.375L275.103 169.205ZM279.853 163.013L279.747 163.216C279.348 163.978 278.931 164.712 278.487 165.428L278.366 165.623L277.976 165.381L278.097 165.186C278.535 164.479 278.947 163.755 279.341 163.003L279.447 162.8L279.853 163.013Z" fill="#6095AB"/>
<path d="M285.649 151.052L284.424 146.96C284.424 146.96 290.569 134.363 290.59 134.145C290.611 133.928 291.385 125.951 291.385 125.951L286.147 133.291L280.098 146.872L285.649 151.052Z" fill="#F99A35"/>
<path d="M272.226 145.855L291.385 125.951L280.097 146.871L272.226 145.855Z" fill="#FEC369"/>
<path d="M284.423 146.96L292.777 148.087L291.385 125.951L284.423 146.96Z" fill="#FEC369"/>
</g>
<defs>
<clipPath id="clip0_30_54">
<rect width="346" height="346" fill="white"/>
</clipPath>
</defs>
</svg>
